<svg width="126" height="27" viewBox="0 0 126 27" fill="none" xmlns="http://www.w3.org/2000/svg">
<g filter="url(#filter0_ddii_852_12415)">
<g clip-path="url(#clip0_852_12415)">
<rect x="1.90002" width="24" height="24" rx="6" fill="#FFCF00"/>
<g filter="url(#filter1_d_852_12415)">
<path fill-rule="evenodd" clip-rule="evenodd" d="M14.2001 4.5C18.3422 4.5 21.7001 7.85786 21.7001 12C21.7001 16.1421 18.3422 19.5 14.2001 19.5C10.0579 19.5 6.70007 16.1421 6.70007 12C6.70007 7.85786 10.0579 4.5 14.2001 4.5ZM19.8251 12C19.8251 15.1066 17.3067 17.625 14.2001 17.625V6.375C17.3067 6.375 19.8251 8.8934 19.8251 12Z" fill="#0D0F11"/>
</g>
</g>
</g>
<path d="M34.27 5.4L42.172 5.4L44.098 7.344V11.754L42.154 13.716H36.718V18H34.27V5.4ZM41.056 11.664L41.686 11.034V8.082L41.056 7.452L36.718 7.452V11.664H41.056ZM45.7567 5.4H48.2047V15.93H54.5047V18H45.7567V5.4ZM59.2245 5.4H61.4565L66.0645 18H63.5805L62.5545 15.21H58.1265L57.1005 18H54.6165L59.2245 5.4ZM62.0145 13.194L60.3405 8.406H60.3045L58.6845 13.194H62.0145ZM68.8781 12.852L64.3961 5.4H67.0781L70.0841 10.566H70.1201L73.1261 5.4H75.8081L71.3261 12.852V18H68.8781V12.852ZM79.6863 7.47H75.9243V5.4L85.8963 5.4V7.47L82.1343 7.47V18H79.6863V7.47ZM86.7423 15.93V7.47L88.8123 5.4H95.2923L97.3623 7.47V15.93L95.2923 18H88.8123L86.7423 15.93ZM93.9963 15.912L94.9143 14.994V8.406L93.9963 7.488H90.1083L89.1903 8.406V14.994L90.1083 15.912H93.9963ZM99.3758 5.4H101.824V15.93L108.124 15.93V18H99.3758V5.4ZM109.406 5.4H111.854V18H109.406V5.4ZM117.668 5.4H119.9L124.508 18H122.024L120.998 15.21H116.57L115.544 18H113.06L117.668 5.4ZM120.458 13.194L118.784 8.406H118.748L117.128 13.194H120.458Z" fill="black"/>
<defs>
<filter id="filter0_ddii_852_12415" x="0.400024" y="0" width="27" height="27" filterUnits="userSpaceOnUse" color-interpolation-filters="sRGB">
<feFlood flood-opacity="0" result="BackgroundImageFix"/>
<feColorMatrix in="SourceAlpha" type="matrix" values="0 0 0 0 0 0 0 0 0 0 0 0 0 0 0 0 0 0 127 0" result="hardAlpha"/>
<feOffset dy="0.5"/>
<feGaussianBlur stdDeviation="0.25"/>
<feComposite in2="hardAlpha" operator="out"/>
<feColorMatrix type="matrix" values="0 0 0 0 0.162923 0 0 0 0 0.162923 0 0 0 0 0.162923 0 0 0 0.08 0"/>
<feBlend mode="normal" in2="BackgroundImageFix" result="effect1_dropShadow_852_12415"/>
<feColorMatrix in="SourceAlpha" type="matrix" values="0 0 0 0 0 0 0 0 0 0 0 0 0 0 0 0 0 0 127 0" result="hardAlpha"/>
<feMorphology radius="0.5" operator="erode" in="SourceAlpha" result="effect2_dropShadow_852_12415"/>
<feOffset dy="1.5"/>
<feGaussianBlur stdDeviation="1"/>
<feComposite in2="hardAlpha" operator="out"/>
<feColorMatrix type="matrix" values="0 0 0 0 0.164706 0 0 0 0 0.164706 0 0 0 0 0.164706 0 0 0 0.14 0"/>
<feBlend mode="normal" in2="effect1_dropShadow_852_12415" result="effect2_dropShadow_852_12415"/>
<feBlend mode="normal" in="SourceGraphic" in2="effect2_dropShadow_852_12415" result="shape"/>
<feColorMatrix in="SourceAlpha" type="matrix" values="0 0 0 0 0 0 0 0 0 0 0 0 0 0 0 0 0 0 127 0" result="hardAlpha"/>
<feOffset dy="1.5"/>
<feGaussianBlur stdDeviation="0.75"/>
<feComposite in2="hardAlpha" operator="arithmetic" k2="-1" k3="1"/>
<feColorMatrix type="matrix" values="0 0 0 0 1 0 0 0 0 1 0 0 0 0 1 0 0 0 0.1 0"/>
<feBlend mode="normal" in2="shape" result="effect3_innerShadow_852_12415"/>
<feColorMatrix in="SourceAlpha" type="matrix" values="0 0 0 0 0 0 0 0 0 0 0 0 0 0 0 0 0 0 127 0" result="hardAlpha"/>
<feMorphology radius="0.5" operator="erode" in="SourceAlpha" result="effect4_innerShadow_852_12415"/>
<feOffset/>
<feComposite in2="hardAlpha" operator="arithmetic" k2="-1" k3="1"/>
<feColorMatrix type="matrix" values="0 0 0 0 0.0627451 0 0 0 0 0.0941176 0 0 0 0 0.156863 0 0 0 0.24 0"/>
<feBlend mode="normal" in2="effect3_innerShadow_852_12415" result="effect4_innerShadow_852_12415"/>
</filter>
<filter id="filter1_d_852_12415" x="5.20007" y="2.625" width="18" height="21" filterUnits="userSpaceOnUse" color-interpolation-filters="sRGB">
<feFlood flood-opacity="0" result="BackgroundImageFix"/>
<feColorMatrix in="SourceAlpha" type="matrix" values="0 0 0 0 0 0 0 0 0 0 0 0 0 0 0 0 0 0 127 0" result="hardAlpha"/>
<feMorphology radius="0.75" operator="erode" in="SourceAlpha" result="effect1_dropShadow_852_12415"/>
<feOffset dy="1.125"/>
<feGaussianBlur stdDeviation="1.125"/>
<feComposite in2="hardAlpha" operator="out"/>
<feColorMatrix type="matrix" values="0 0 0 0 0.141176 0 0 0 0 0.141176 0 0 0 0 0.141176 0 0 0 0.1 0"/>
<feBlend mode="normal" in2="BackgroundImageFix" result="effect1_dropShadow_852_12415"/>
<feBlend mode="normal" in="SourceGraphic" in2="effect1_dropShadow_852_12415" result="shape"/>
</filter>
<clipPath id="clip0_852_12415">
<rect x="1.90002" width="24" height="24" rx="6" fill="white"/>
</clipPath>
</defs>
</svg>
